<?xml version="1.0" encoding="UTF-8"?>
<svg width="24px" height="24px" viewBox="0 0 24 24" version="1.1" xmlns="http://www.w3.org/2000/svg" xmlns:xlink="http://www.w3.org/1999/xlink">
    <!-- Generator: Sketch 59.1 (86144) - https://sketch.com -->
    <title>Icon/credit-card</title>
    <desc>Created with Sketch.</desc>
    <g id="页面-1" stroke="none" stroke-width="1" fill="none" fill-rule="evenodd">
        <g id="菜单展开" transform="translate(-136.000000, -698.000000)">
            <g id="Icon/credit-card" transform="translate(136.000000, 698.000000)">
                <g id="Icon">
                    <polygon id="Path" points="0 0 24 0 24 24 0 24"></polygon>
                    <g id="编组" transform="translate(4.000000, 5.000000)" fill="#040000" fill-rule="nonzero" stroke="#000000" stroke-width="0.3">
                        <path d="M16.3154986,0.0701521484 C15.9527047,-0.0415739946 15.5596779,-0.0212601504 15.2271167,0.141250603 L0.67504798,5.75802852 C0.211477922,6.01195157 0.00992572296,6.26587462 0.00992572296,6.57058229 C-0.0505399367,6.92607456 0.171167482,7.26125299 0.51380622,7.35266529 L4.48438454,8.62228055 L4.62547108,8.66290824 L12.5666277,3.67585949 C11.4883235,4.68139478 9.45264625,6.46901307 6.50998414,8.99808667 L6.40920804,9.07934204 L6.09680213,13.121797 L6.14719018,13.2132093 C6.17742301,13.2639939 6.27819911,13.4265047 6.52006175,13.4265047 C6.62083785,13.4265047 6.73169156,13.3960339 6.86270049,13.3452493 C6.95339898,13.2944647 7.14487357,13.2030524 9.00923141,11.425591 L12.405386,13.9851354 C12.6674038,14.1578031 12.9798097,14.2695292 13.2922156,14.3 L13.3123709,14.3 C13.4030693,14.3 13.4836902,14.2796862 13.5643111,14.2390585 L13.6247768,14.2390585 C13.8867946,14.1273323 14.108502,13.9241939 14.239511,13.6702708 C14.2999766,13.5585447 14.4007527,13.3554062 16.9,1.16709973 L16.9,1.1061582 C16.8899224,0.547527487 16.6984478,0.202192136 16.3154986,0.0701521484 L16.3154986,0.0701521484 Z M14.0278812,3.1273857 C14.1689677,2.9445611 14.1689677,2.70079497 14.0278812,2.51797037 C13.9472603,2.42655807 13.8364066,2.37577346 13.6852424,2.37577346 C13.5340783,2.37577346 13.3929917,2.42655807 13.3123709,2.45702884 L13.3022932,2.45702884 L4.51461737,7.93160985 L0.67504798,6.7127792 L0.64481515,6.7127792 C0.64481515,6.67215151 0.64481515,6.63152382 0.65489276,6.59089613 L0.65489276,6.58073921 C0.65489276,6.56042537 0.70528081,6.46901307 0.937065838,6.35728692 L15.479057,0.770979773 C15.6705316,0.679567474 15.9023166,0.65925363 16.1038688,0.720195162 C16.1441793,0.730352084 16.2651106,0.770979773 16.2651106,1.09600128 C14.2596662,10.907588 13.7557857,13.1928955 13.6852424,13.385877 C13.6146992,13.517917 13.5038454,13.6093293 13.3728365,13.6601139 L13.3325261,13.6601139 C13.1813619,13.649957 12.9394993,13.5382308 12.7782575,13.4468185 L8.95884336,10.5825665 L8.76736877,10.785705 C7.58828841,11.9131233 7.03401986,12.4108125 6.79215722,12.6139509 L7.04409747,9.4246774 C13.7356305,3.64538872 13.9472603,3.27973953 14.0278812,3.1273857 Z" id="形状"></path>
                    </g>
                </g>
            </g>
        </g>
    </g>
</svg>