<?xml version="1.0" encoding="UTF-8"?>
<svg width="24px" height="24px" viewBox="0 0 24 24" version="1.1" xmlns="http://www.w3.org/2000/svg" xmlns:xlink="http://www.w3.org/1999/xlink">
    <!-- Generator: Sketch 59.1 (86144) - https://sketch.com -->
    <title>Icon/facebook备份</title>
    <desc>Created with Sketch.</desc>
    <g id="页面-1" stroke="none" stroke-width="1" fill="none" fill-rule="evenodd">
        <g id="菜单展开" transform="translate(-56.000000, -698.000000)">
            <g id="Icon/facebook备份" transform="translate(56.000000, 698.000000)">
                <polygon id="Path" points="0 0 24 0 24 24 0 24"></polygon>
                <g id="编组" transform="translate(3.000000, 5.000000)" fill="#000000" fill-rule="nonzero" stroke="#000000" stroke-width="0.5">
                    <path d="M5.73066813,5 C4.90257465,5 4.23076923,5.89703808 4.23076923,7 C4.23076923,8.10296192 4.90257465,9 5.73066813,9 C6.55876162,9 7.23056703,8.10296192 7.23056703,7.00282087 C7.23756501,6.44428773 7.06261568,5.90832158 6.7523722,5.52750353 C6.47478594,5.18617772 6.11089134,5 5.73066813,5 Z M5.73066813,8.43582511 C5.16149965,8.43582511 4.69730077,7.79266573 4.69730077,7 C4.69730077,6.20733427 5.16149965,5.56417489 5.73066813,5.56417489 C5.98726048,5.56417489 6.23218954,5.69111425 6.42113481,5.92524683 C6.64506995,6.19887165 6.76870081,6.58815233 6.76403549,7 C6.76403549,7.78984485 6.29983661,8.43582511 5.73066813,8.43582511 Z" id="形状"></path>
                    <path d="M15.5371773,1.26961225 C15.5025742,1.21135649 15.4506696,1.16766467 15.3901142,1.13853679 C14.2366785,0.605496599 13.0198038,0.22392138 11.7740932,0.005462285 C11.6327973,-0.0207528064 11.4857343,0.049154104 11.4136445,0.177316773 C11.298301,0.384124716 11.1656558,0.655013994 11.0474287,0.917164908 C9.83055398,0.754048784 8.61079568,0.751135996 7.4169897,0.917164908 C7.31029689,0.681229085 7.17476819,0.413252596 7.04212308,0.174403985 C6.97291694,0.0520668919 6.83162106,-0.0178400185 6.68744159,0.005462285 C5.441731,0.221008592 4.2219727,0.602583811 3.07430414,1.13853679 C3.00798159,1.16766467 2.95607698,1.21426928 2.92724109,1.26378667 C0.819337278,4.43872552 -0.0370887569,7.77678049 0.303174786,11.4672828 C0.311825554,11.5634048 0.357962983,11.6507884 0.441587074,11.7177826 C1.8141756,12.7343455 3.26462104,13.4771065 4.87943107,13.9839316 C5.01784336,14.0276234 5.16202283,13.9810188 5.25718128,13.8586817 C5.60609559,13.3751589 5.91463965,12.8712466 6.1712791,12.3556831 C6.21453294,12.2682995 6.22030012,12.1634391 6.18569705,12.0731427 C6.17416269,12.0381892 6.15397756,12.0090614 6.13379244,11.9799335 C8.16960651,12.6061829 10.2919283,12.6061829 12.316208,11.9828463 C12.2960229,12.0090614 12.2787213,12.041102 12.267187,12.0731427 C12.2325839,12.1663519 12.2383511,12.2682995 12.2816049,12.3556831 C12.5440115,12.8683338 12.849672,13.3722461 13.1928191,13.8528561 C13.2591417,13.9460653 13.3629509,13.9984955 13.4725273,13.9984955 C13.5071304,13.9984955 13.5417335,13.9926699 13.5734529,13.9839316 C15.188263,13.4800193 16.641592,12.7372583 18.0170641,11.7177826 C18.094921,11.6595268 18.1468256,11.5692304 18.1554764,11.4701956 C18.5072743,7.80882116 17.624896,4.37464418 15.5371773,1.26961225 Z M17.5902929,11.3099923 C16.3388151,12.2246077 15.0181312,12.9003745 13.5619186,13.3751589 C13.3254643,13.0314499 13.1063115,12.6760898 12.913111,12.3178169 C13.3168135,12.151788 13.6974473,11.9624567 14.0694303,11.7410849 C14.1703559,11.6828291 14.2337949,11.5779687 14.2395621,11.4614572 C14.2453293,11.3449457 14.1934247,11.231347 14.1011498,11.1643529 C14.0117585,11.0973587 13.9252508,11.0274518 13.8387432,10.9575449 C13.7349339,10.8730741 13.5907545,10.8555973 13.4782945,10.9109403 C10.7475354,12.1838286 7.72265017,12.1838286 4.96017157,10.9109403 C4.84194441,10.8585101 4.70353212,10.8759868 4.6026065,10.9604577 C4.51898241,11.0303646 4.43247473,11.1002715 4.34596704,11.1643529 C4.25369219,11.2342598 4.20178758,11.3449457 4.20755476,11.4614572 C4.21332193,11.5779687 4.2767609,11.6828291 4.38057012,11.7439977 C4.76985468,11.9711951 5.15048847,12.1605263 5.53688944,12.3207297 C5.34368896,12.6819154 5.12453617,13.0372755 4.88808184,13.3780717 C3.43186922,12.9003745 2.1111853,12.2216949 0.868358297,11.3099923 C0.568465005,7.8233851 1.38452079,4.66301019 3.36843026,1.63953632 C4.40940601,1.16183909 5.50516996,0.81521733 6.62111904,0.608409387 C6.75664774,0.861821937 6.88640926,1.13271121 6.97580053,1.34825752 C7.02770513,1.47059462 7.15458307,1.54341431 7.28434459,1.5230248 C8.56465825,1.32495522 9.87669141,1.32495522 11.1829574,1.5230248 C11.3127189,1.54341431 11.4395968,1.47059462 11.4915014,1.34825752 C11.5953107,1.10067055 11.7221886,0.82978127 11.8404157,0.608409387 C12.9592484,0.818130118 14.0521288,1.16475188 15.0902209,1.63953632 C17.0856648,4.63096952 17.9046041,7.79425722 17.5902929,11.3099923 Z" id="形状"></path>
                    <path d="M11.7306681,5 C10.9025746,5 10.2307692,5.89703808 10.2307692,7 C10.2307692,8.10296192 10.9025746,9 11.7306681,9 C12.5727576,9 13.230567,8.12270804 13.230567,7.00282087 C13.237565,6.44428773 13.0626157,5.90832158 12.7523722,5.52750353 C12.4747859,5.18617772 12.1108913,5 11.7306681,5 Z M11.7306681,8.43582511 C11.1614997,8.43582511 10.6973008,7.79266573 10.6973008,7 C10.6973008,6.20733427 11.1614997,5.56417489 11.7306681,5.56417489 C11.9872605,5.56417489 12.2321895,5.69111425 12.4211348,5.92524683 C12.64507,6.19887165 12.7687008,6.58815233 12.7640355,7 C12.7640355,7.80394922 12.3091672,8.43582511 11.7306681,8.43582511 Z" id="形状"></path>
                </g>
            </g>
        </g>
    </g>
</svg>